<?xml version="1.0" encoding="UTF-8" standalone="no"?>
<!DOCTYPE svg PUBLIC "-//W3C//DTD SVG 1.1//EN" "https://www.w3.org/Graphics/SVG/1.1/DTD/svg11.dtd">
<svg width="100%" height="100%" viewBox="0 0 244 100" version="1.1" xmlns="https://www.w3.org/2000/svg" xmlns:xlink="https://www.w3.org/1999/xlink" xml:space="preserve" xmlns:serif="https://www.serif.com/" style="fill-rule:evenodd;clip-rule:evenodd;stroke-linejoin:round;stroke-miterlimit:1.5;">
    <g transform="matrix(0.564286,0,0,0.515385,55.0474,15.9834)">
        <rect x="-97.378" y="-39.43" width="436.696" height="202.751" style="fill:rgb(242,164,118);"/>
    </g>
    <path d="M6.032,14.962L84.993,15.023" style="fill:none;stroke:black;stroke-width:2px;"/>
    <path d="M98.228,2.996L98.228,15.997L94.861,15.997L94.861,2.98L98.228,2.996Z"/>
    <path d="M91.036,0.996L91.036,3.158L102.002,3.158L102.002,1.024L91.036,0.996Z"/>
    <path d="M182.905,82.988L185.279,82.988L185.279,97.966L182.796,97.966L182.796,82.983L182.905,82.988Z"/>
    <path d="M159.006,15.01L239.004,15.024" style="fill:none;stroke:black;stroke-width:2px;"/>
    <path d="M0.003,76L244.001,76.002" style="fill:none;stroke:black;stroke-width:2.08px;"/>
    <path d="M91.029,0.989L91.044,2.989L95.008,2.989L95.023,15.996L98.005,15.996L98.005,2.998L102.002,2.998L102.002,1.022L91.029,0.989Z"/>
    <path d="M117.008,1.001L121.002,1.001L121.001,7.999L125,8L125.001,1L129.002,1L129.001,16L125,16L125,9L121.01,8.997L121.01,15.997L117.016,15.988L117,1L117.008,1.001Z"/>
    <g transform="matrix(1.00196,0,0,0.999083,-0.302235,0.0146584)">
        <path d="M144.023,0.992L154.009,0.998L154.033,3L148.021,3L148.001,7.997L152.002,8.004L152.006,8.998L147.993,8.994L148.005,13.996L154.009,14.024L154.021,15.979L144.023,15.979L144.023,0.992Z"/>
    </g>
    <path d="M56.007,24.999L64.002,25.003L64.002,64.988L85.002,64.988L85.002,65.999L56.009,65.999L56.007,24.999Z"/>
    <g>
        <path d="M172.06,25.029L150.089,64.113L150.089,65.971L151.992,65.971L158.074,54.011L177.991,54.014L183.031,65.967L192.001,65.967L192.023,64.028L172.06,25.029Z"/>
        <path d="M169.059,35.017L159.027,52.88L176.975,52.88L169.059,35.017Z" style="fill:rgb(242,164,118);"/>
    </g>
    <path d="M202.044,25.077L210.933,25.077L210.933,54.001L235.007,25.005L236.004,24.996L236.004,26.995L221.028,45.042L238.005,65.077L238.005,65.963L227.087,65.963L227.087,65.048L216.026,51.959L203.965,65.934L202.079,65.934L202.044,25.077Z"/>
    <path d="M62.019,83.019L65.019,83.019L65.019,96.957L71.018,96.957L71.018,97.981L62.074,97.981L62.019,83.019Z"/>
    <path d="M86.063,83.035L88.99,83.035L88.99,96.982L94.958,96.982L94.958,97.988L86.04,97.988L86.063,83.035Z"/>
    <path d="M109.036,83.012L118.017,83.012L118.017,83.982L112.017,83.982L112.017,89.981L115.987,89.981L115.987,91.005L111.999,91.005L111.999,96.95L117.999,96.95L117.999,97.956L109.054,97.956L109.036,83.012Z"/>
    <path d="M157.048,83.017L168.974,83.017L168.974,83.986L164.072,83.986L164.072,97.937L161.082,97.937L161.082,84.317L157.018,84.317L157.048,83.017Z"/>
    <path d="M183.035,83.001L185.024,83.001L185.002,97.983L183.027,97.984L183.035,83.001Z"/>
    <path d="M199.016,83.026L202.985,83.026L207.064,91.934L211.033,83.008L213.027,83.008L207.082,97.001L205.034,97.001L199.016,83.026Z"/>
    <path d="M226.056,82.998L235.001,82.998L235.001,83.967L229.038,83.967L229.038,89.948L232.952,89.948L232.952,90.936L229.056,90.936L229.056,96.899L234.909,96.899L234.909,97.942L226.056,97.942L226.056,82.998Z"/>
    <g transform="matrix(1.08771,0,0,1,-8.35342,0)">
        <path d="M118.336,25.383C90.259,26.369 84.752,61.732 118.859,65.679C99.278,63.01 97.184,30.921 118.336,25.383"/>
    </g>
    <g transform="matrix(-1.10617,-1.34433e-16,1.21321e-16,-1,247.582,90.8308)">
        <path d="M118.336,25.383C90.259,26.369 84.752,61.732 118.859,65.679C99.278,63.01 97.184,30.921 118.336,25.383"/>
    </g>
    <g transform="matrix(0.336271,0,0,0.359883,1.68302,73.9322)">
        <path d="M118.336,25.383C90.259,26.369 84.752,61.732 118.859,65.679C99.278,63.01 97.184,30.921 118.336,25.383"/>
    </g>
    <g transform="matrix(-0.34198,-4.83801e-17,3.75071e-17,-0.359883,80.8068,106.621)">
        <path d="M118.336,25.383C90.259,26.369 84.752,61.732 118.859,65.679C99.278,63.01 97.184,30.921 118.336,25.383"/>
    </g>
    <path d="M45.032,35.007L45.032,31.04" style="fill:none;"/>
    <path d="M44.946,32.049C-5.562,0.828 -11.406,86.795 44.816,60.511C-0.854,80.273 2.905,7.246 44.946,32.049Z"/>
    <g transform="matrix(0.365143,0,0,0.373593,6.01166,73.4827)">
        <path d="M44.946,32.049C-5.562,0.828 -11.406,86.795 44.816,60.511C-0.854,80.273 2.905,7.246 44.946,32.049Z"/>
    </g>
    <g transform="matrix(0.365143,0,0,0.373593,129.194,73.3586)">
        <path d="M44.946,32.049C-5.562,0.828 -11.406,86.795 44.816,60.511C-0.854,80.273 2.905,7.246 44.946,32.049Z"/>
    </g>
    <path d="M116.067,25.707C116.648,25.695 117.209,25.632 117.783,25.548C118.073,25.506 118.37,25.412 118.664,25.419C118.968,25.427 119.268,25.538 119.562,25.607C119.987,25.706 120.423,25.776 120.855,25.833C121.237,25.883 121.589,25.613 121.639,25.231C121.689,24.848 121.419,24.497 121.037,24.447C120.65,24.396 120.26,24.335 119.881,24.246C119.495,24.156 119.097,24.032 118.699,24.022C118.326,24.013 117.947,24.112 117.581,24.165C117.065,24.241 116.561,24.299 116.039,24.309C115.654,24.317 115.347,24.636 115.355,25.022C115.362,25.408 115.682,25.714 116.067,25.707Z" style="fill:rgb(242,164,118);"/>
    <path d="M118.247,25.015C118.646,25.027 119.045,24.997 119.444,25.004C119.923,25.012 120.403,25.062 120.879,25.113" style="fill:none;stroke:rgb(242,164,118);stroke-width:1px;stroke-linecap:round;"/>
    <path d="M121.243,65.827C120.54,65.819 119.838,65.758 119.136,65.751C118.305,65.742 117.475,65.792 116.645,65.761C115.704,65.725 114.765,65.583 113.822,65.616" style="fill:none;stroke:rgb(242,164,118);stroke-width:1px;stroke-linecap:round;"/>
    <path d="M40.175,82.632C40.48,82.623 40.793,82.579 41.098,82.596C41.332,82.609 41.561,82.675 41.789,82.723" style="fill:none;stroke:rgb(242,164,118);stroke-width:1px;stroke-linecap:round;"/>
    <path d="M39.962,97.852C40.696,97.949 41.434,97.953 42.174,97.944" style="fill:none;stroke:rgb(242,164,118);stroke-width:1px;stroke-linecap:round;"/>
    <path d="M120.866,7.897L125.246,7.897L125.246,9.228L120.852,9.228L120.866,7.897Z"/>
    <path d="M120.843,9.467L125.44,9.467L125.44,7.66L120.751,7.66L120.843,9.467Z"/>
</svg>
