<?xml version="1.0" encoding="UTF-8" standalone="no"?>
<!DOCTYPE svg PUBLIC "-//W3C//DTD SVG 1.1//EN" "https://www.w3.org/Graphics/SVG/1.1/DTD/svg11.dtd">
<svg width="100%" height="100%" viewBox="0 0 475 550" version="1.1" xmlns="https://www.w3.org/2000/svg" xmlns:xlink="https://www.w3.org/1999/xlink" xml:space="preserve" xmlns:serif="https://www.serif.com/" style="fill-rule:evenodd;clip-rule:evenodd;stroke-linejoin:round;stroke-miterlimit:2;">
    <g transform="matrix(3.06975,0,0,2.53674,-504.38,-572.607)">
        <path d="M195.461,325.276C195.461,327.469 194.86,329.292 193.659,330.746C192.376,332.248 190.727,333 188.711,333C186.696,333 185.046,332.255 183.764,330.764C182.481,329.273 181.84,327.444 181.84,325.276L181.84,320.582L186.726,320.582L186.726,328.602C186.726,330.622 187.388,331.632 188.711,331.632C189.974,331.632 190.605,330.622 190.605,328.602L190.605,322.8C190.605,320.361 190.035,318.463 188.894,317.108L183.764,310.974C182.481,309.446 181.84,307.204 181.84,304.247L181.84,300.626C181.84,298.433 182.461,296.597 183.703,295.119C184.945,293.641 186.573,292.902 188.589,292.902C190.605,292.902 192.233,293.641 193.475,295.119C194.717,296.597 195.338,298.433 195.338,300.626L195.338,305.319L190.483,305.319L190.483,297.3C190.483,295.279 189.851,294.269 188.589,294.269C187.347,294.269 186.726,295.279 186.726,297.3L186.726,302.51C186.726,304.95 187.286,306.834 188.406,308.165L193.537,314.3C194.819,315.852 195.461,318.106 195.461,321.063L195.461,325.276ZM192.926,303.952L192.926,299.406C192.926,297.336 192.172,295.723 190.666,294.565C191.338,295.501 191.674,296.757 191.674,298.334L191.674,303.952L192.926,303.952ZM193.048,326.495L193.048,322.024C193.048,319.264 192.457,317.17 191.277,315.741L185.902,309.237C184.822,307.931 184.283,305.91 184.283,303.176L184.283,299.184C184.283,297.607 184.558,296.339 185.107,295.378C183.723,296.536 183.031,298.1 183.031,300.071L183.031,303.73C183.031,306.489 183.611,308.584 184.772,310.013L190.147,316.517C191.246,317.823 191.796,319.843 191.796,322.578L191.796,327.567C191.796,329.144 191.46,330.401 190.788,331.337C192.295,330.179 193.048,328.565 193.048,326.495ZM185.107,330.524C184.558,329.563 184.283,328.294 184.283,326.717L184.283,321.95L183.031,321.95L183.031,325.83C183.031,327.801 183.723,329.366 185.107,330.524Z" style="fill-rule:nonzero;"/>
        <path d="M207.463,332.63L205.905,332.63C203.869,332.63 202.184,331.879 200.851,330.376C199.517,328.873 198.85,327.05 198.85,324.906L198.85,294.639L197.262,294.639L197.262,293.271L198.85,293.271L198.85,282.295L203.706,279.634L203.706,293.271L207.218,293.271L207.218,294.639L203.706,294.639L203.706,328.232C203.706,330.253 204.439,331.263 205.905,331.263L207.463,331.263L207.463,332.63ZM202.088,330.117C201.538,329.181 201.263,327.924 201.263,326.348L201.263,282.517L200.011,283.219L200.011,325.424C200.011,327.419 200.703,328.984 202.088,330.117Z" style="fill-rule:nonzero;"/>
        <path d="M224.626,332.63L218.182,332.63L218.182,331.559C217.266,332.519 216.095,333 214.67,333C211.209,333 209.478,330.684 209.478,326.052L209.478,317.33C209.478,312.452 211.881,310.013 216.686,310.013L218.182,310.013L218.182,297.3C218.182,295.279 217.571,294.269 216.35,294.269C215.149,294.269 214.548,295.279 214.548,297.3L214.548,305.319L209.662,305.319L209.662,300.626C209.662,298.285 210.267,296.413 211.479,295.008C212.69,293.604 214.314,292.902 216.35,292.902C218.406,292.902 220.035,293.604 221.236,295.008C222.437,296.413 223.038,298.285 223.038,300.626L223.038,331.263L224.626,331.263L224.626,332.63ZM212.929,295.156C211.545,296.289 210.853,297.928 210.853,300.071L210.853,303.952L212.105,303.952L212.105,299.184C212.105,297.46 212.38,296.117 212.929,295.156ZM220.625,331.263L220.625,299.184C220.625,297.065 219.892,295.452 218.427,294.343C219.058,295.205 219.373,296.462 219.373,298.113L219.373,331.263L220.625,331.263ZM218.182,330.191L218.182,311.38L216.747,311.38C215.159,311.38 214.365,312.378 214.365,314.374L214.365,328.602C214.365,330.524 214.925,331.485 216.044,331.485C216.757,331.485 217.47,331.053 218.182,330.191ZM213.113,331.632C212.319,330.672 211.922,329.341 211.922,327.641L211.922,316.037C211.922,314.386 212.196,313.08 212.746,312.119C211.362,312.982 210.669,314.595 210.669,316.961L210.669,326.791C210.669,329.501 211.484,331.115 213.113,331.632Z" style="fill-rule:nonzero;"/>
        <path d="M240.324,305.319L235.437,305.319L235.437,297.3C235.437,295.378 234.938,294.417 233.941,294.417C233.289,294.417 232.638,294.848 231.986,295.71L231.986,331.263L233.574,331.263L233.574,332.63L225.542,332.63L225.542,331.263L227.13,331.263L227.13,294.639L225.542,294.639L225.542,293.271L231.986,293.271L231.986,294.343C232.902,293.382 234.053,292.902 235.437,292.902C238.695,292.902 240.324,295.218 240.324,299.85L240.324,305.319ZM237.88,303.952L237.88,298.556C237.88,296.437 237.209,295.057 235.865,294.417C236.374,295.008 236.628,296.166 236.628,297.891L236.628,303.952L237.88,303.952ZM229.574,331.263L229.574,294.639L228.321,294.639L228.321,331.263L229.574,331.263Z" style="fill-rule:nonzero;"/>
        <path d="M251.959,332.63L250.402,332.63C248.366,332.63 246.681,331.879 245.347,330.376C244.014,328.873 243.347,327.05 243.347,324.906L243.347,294.639L241.759,294.639L241.759,293.271L243.347,293.271L243.347,282.295L248.203,279.634L248.203,293.271L251.715,293.271L251.715,294.639L248.203,294.639L248.203,328.232C248.203,330.253 248.936,331.263 250.402,331.263L251.959,331.263L251.959,332.63ZM246.584,330.117C246.035,329.181 245.76,327.924 245.76,326.348L245.76,282.517L244.508,283.219L244.508,325.424C244.508,327.419 245.2,328.984 246.584,330.117Z" style="fill-rule:nonzero;"/>
    </g>
    <g transform="matrix(3.06975,0,0,2.53674,-558.391,-459.989)">
        <path d="M197.049,332.63L190.605,332.63L190.605,331.559C189.688,332.519 188.518,333 187.093,333C183.631,333 181.901,330.684 181.901,326.052L181.901,317.33C181.901,312.452 184.303,310.013 189.108,310.013L190.605,310.013L190.605,297.3C190.605,295.279 189.994,294.269 188.772,294.269C187.571,294.269 186.97,295.279 186.97,297.3L186.97,305.319L182.084,305.319L182.084,300.626C182.084,298.285 182.69,296.413 183.901,295.008C185.113,293.604 186.736,292.902 188.772,292.902C190.829,292.902 192.457,293.604 193.659,295.008C194.86,296.413 195.461,298.285 195.461,300.626L195.461,331.263L197.049,331.263L197.049,332.63ZM185.352,295.156C183.967,296.289 183.275,297.928 183.275,300.071L183.275,303.952L184.527,303.952L184.527,299.184C184.527,297.46 184.802,296.117 185.352,295.156ZM193.048,331.263L193.048,299.184C193.048,297.065 192.315,295.452 190.849,294.343C191.48,295.205 191.796,296.462 191.796,298.113L191.796,331.263L193.048,331.263ZM190.605,330.191L190.605,311.38L189.169,311.38C187.581,311.38 186.787,312.378 186.787,314.374L186.787,328.602C186.787,330.524 187.347,331.485 188.467,331.485C189.179,331.485 189.892,331.053 190.605,330.191ZM185.535,331.632C184.741,330.672 184.344,329.341 184.344,327.641L184.344,316.037C184.344,314.386 184.619,313.08 185.169,312.119C183.784,312.982 183.092,314.595 183.092,316.961L183.092,326.791C183.092,329.501 183.906,331.115 185.535,331.632Z" style="fill-rule:nonzero;"/>
        <path d="M224.29,332.63L217.877,332.63L217.877,297.3C217.877,295.378 217.266,294.417 216.044,294.417C215.25,294.417 214.497,294.848 213.784,295.71L213.784,331.263L215.373,331.263L215.373,332.63L207.341,332.63L207.341,331.263L208.929,331.263L208.929,294.639L207.341,294.639L207.341,293.271L213.784,293.271L213.784,294.343C214.701,293.382 215.912,292.902 217.419,292.902C220.961,292.902 222.733,295.218 222.733,299.85L222.733,331.263L224.29,331.263L224.29,332.63ZM220.289,331.263L220.289,298.556C220.289,296.437 219.587,295.033 218.182,294.343C218.752,295.033 219.037,296.215 219.037,297.891L219.037,331.263L220.289,331.263ZM211.372,331.263L211.372,294.639L210.12,294.639L210.12,331.263L211.372,331.263Z" style="fill-rule:nonzero;"/>
        <path d="M240.324,325.276C240.324,327.444 239.657,329.273 238.323,330.764C236.99,332.255 235.305,333 233.269,333C231.233,333 229.543,332.255 228.199,330.764C226.856,329.273 226.184,327.444 226.184,325.276L226.184,300.626C226.184,298.457 226.856,296.628 228.199,295.138C229.543,293.647 231.233,292.902 233.269,292.902C235.305,292.902 236.99,293.647 238.323,295.138C239.657,296.628 240.324,298.457 240.324,300.626L240.324,313.561L231.07,313.561L231.07,328.602C231.07,330.622 231.803,331.632 233.269,331.632C234.714,331.632 235.437,330.622 235.437,328.602L235.437,320.582L240.324,320.582L240.324,325.276ZM237.88,312.193L237.88,299.406C237.88,297.336 237.127,295.723 235.621,294.565C236.292,295.427 236.628,296.684 236.628,298.334L236.628,312.193L237.88,312.193ZM235.437,312.193L235.437,297.3C235.437,295.279 234.714,294.269 233.269,294.269C231.803,294.269 231.07,295.279 231.07,297.3L231.07,312.193L235.437,312.193ZM229.451,330.524C228.902,329.563 228.627,328.294 228.627,326.717L228.627,299.184C228.627,297.607 228.902,296.339 229.451,295.378C228.067,296.536 227.375,298.1 227.375,300.071L227.375,325.83C227.375,327.801 228.067,329.366 229.451,330.524ZM237.88,326.495L237.88,321.95L236.628,321.95L236.628,327.567C236.628,329.218 236.292,330.474 235.621,331.337C237.127,330.179 237.88,328.565 237.88,326.495Z" style="fill-rule:nonzero;"/>
        <path d="M264.267,294.639L262.709,294.639L259.839,332.63L255.074,332.63L252.937,303.952L251.379,332.63L246.645,332.63L243.744,294.639L242.187,294.639L242.187,293.271L250.127,293.271L250.127,294.639L248.569,294.639L250.31,324.463L252.082,293.271L256.693,293.271L258.892,324.463L260.969,294.639L259.381,294.639L259.381,293.271L264.267,293.271L264.267,294.639ZM257.395,331.263L254.647,294.639L253.456,294.639L256.204,331.263L257.395,331.263ZM248.936,331.263L246.187,294.639L244.996,294.639L247.775,331.263L248.936,331.263Z" style="fill-rule:nonzero;"/>
    </g>
    <g transform="matrix(3.56566,0,0,2.53674,-555.982,-342.774)">
        <path d="M194.199,326.052C194.199,330.684 192.674,333 189.624,333C188.327,333 187.284,332.519 186.495,331.559L186.495,341.87L187.862,341.87L187.862,343.237L180.947,343.237L180.947,341.87L182.314,341.87L182.314,294.639L180.947,294.639L180.947,293.271L186.495,293.271L186.495,294.343C187.284,293.382 188.327,292.902 189.624,292.902C192.674,292.902 194.199,295.218 194.199,299.85L194.199,326.052ZM192.095,327.345L192.095,298.556C192.095,296.437 191.49,295.033 190.281,294.343C190.772,295.033 191.017,296.215 191.017,297.891L191.017,328.011C191.017,329.686 190.772,330.869 190.281,331.559C191.49,330.869 192.095,329.464 192.095,327.345ZM189.992,328.602L189.992,297.3C189.992,295.378 189.475,294.417 188.441,294.417C187.757,294.417 187.108,294.848 186.495,295.71L186.495,330.191C187.108,331.053 187.757,331.485 188.441,331.485C189.475,331.485 189.992,330.524 189.992,328.602ZM184.391,341.87L184.391,294.639L183.314,294.639L183.314,341.87L184.391,341.87Z" style="fill-rule:nonzero;"/>
        <path d="M208.843,305.319L204.637,305.319L204.637,297.3C204.637,295.378 204.207,294.417 203.348,294.417C202.787,294.417 202.227,294.848 201.666,295.71L201.666,331.263L203.033,331.263L203.033,332.63L196.118,332.63L196.118,331.263L197.485,331.263L197.485,294.639L196.118,294.639L196.118,293.271L201.666,293.271L201.666,294.343C202.454,293.382 203.445,292.902 204.637,292.902C207.441,292.902 208.843,295.218 208.843,299.85L208.843,305.319ZM206.74,303.952L206.74,298.556C206.74,296.437 206.162,295.057 205.005,294.417C205.443,295.008 205.662,296.166 205.662,297.891L205.662,303.952L206.74,303.952ZM199.589,331.263L199.589,294.639L198.511,294.639L198.511,331.263L199.589,331.263Z" style="fill-rule:nonzero;"/>
        <path d="M223.173,325.276C223.173,327.444 222.599,329.273 221.451,330.764C220.303,332.255 218.852,333 217.099,333C215.346,333 213.892,332.255 212.735,330.764C211.578,329.273 210.999,327.444 210.999,325.276L210.999,300.626C210.999,298.457 211.578,296.628 212.735,295.138C213.892,293.647 215.346,292.902 217.099,292.902C218.852,292.902 220.303,293.647 221.451,295.138C222.599,296.628 223.173,298.457 223.173,300.626L223.173,325.276ZM221.069,326.495L221.069,299.406C221.069,297.336 220.421,295.723 219.124,294.565C219.702,295.427 219.991,296.684 219.991,298.334L219.991,327.567C219.991,329.218 219.702,330.474 219.124,331.337C220.421,330.179 221.069,328.565 221.069,326.495ZM218.966,328.602L218.966,297.3C218.966,295.279 218.344,294.269 217.099,294.269C215.837,294.269 215.206,295.279 215.206,297.3L215.206,328.602C215.206,330.622 215.837,331.632 217.099,331.632C218.344,331.632 218.966,330.622 218.966,328.602ZM213.813,330.524C213.339,329.563 213.103,328.294 213.103,326.717L213.103,299.184C213.103,297.607 213.339,296.339 213.813,295.378C212.621,296.536 212.025,298.1 212.025,300.071L212.025,325.83C212.025,327.801 212.621,329.366 213.813,330.524Z" style="fill-rule:nonzero;"/>
        <path d="M230.64,288.726L226.459,288.726L226.459,279.634L230.64,279.634L230.64,288.726ZM230.64,335.513C230.64,337.656 230.066,339.48 228.918,340.983C227.77,342.485 226.319,343.237 224.566,343.237L223.225,343.237L223.225,341.87L224.566,341.87C225.828,341.87 226.459,340.859 226.459,338.839L226.459,294.639L225.118,294.639L225.118,293.271L230.64,293.271L230.64,335.513ZM228.563,287.358L228.563,281.002L227.485,281.002L227.485,287.358L228.563,287.358ZM228.563,336.733L228.563,294.639L227.485,294.639L227.485,337.767C227.485,339.418 227.213,340.687 226.67,341.574C227.932,340.441 228.563,338.827 228.563,336.733Z" style="fill-rule:nonzero;"/>
        <path d="M246.205,325.276C246.205,327.444 245.631,329.273 244.483,330.764C243.335,332.255 241.884,333 240.131,333C238.379,333 236.924,332.255 235.767,330.764C234.61,329.273 234.032,327.444 234.032,325.276L234.032,300.626C234.032,298.457 234.61,296.628 235.767,295.138C236.924,293.647 238.379,292.902 240.131,292.902C241.884,292.902 243.335,293.647 244.483,295.138C245.631,296.628 246.205,298.457 246.205,300.626L246.205,313.561L238.238,313.561L238.238,328.602C238.238,330.622 238.869,331.632 240.131,331.632C241.376,331.632 241.998,330.622 241.998,328.602L241.998,320.582L246.205,320.582L246.205,325.276ZM244.102,312.193L244.102,299.406C244.102,297.336 243.453,295.723 242.156,294.565C242.734,295.427 243.024,296.684 243.024,298.334L243.024,312.193L244.102,312.193ZM241.998,312.193L241.998,297.3C241.998,295.279 241.376,294.269 240.131,294.269C238.869,294.269 238.238,295.279 238.238,297.3L238.238,312.193L241.998,312.193ZM236.845,330.524C236.372,329.563 236.135,328.294 236.135,326.717L236.135,299.184C236.135,297.607 236.372,296.339 236.845,295.378C235.653,296.536 235.057,298.1 235.057,300.071L235.057,325.83C235.057,327.801 235.653,329.366 236.845,330.524ZM244.102,326.495L244.102,321.95L243.024,321.95L243.024,327.567C243.024,329.218 242.734,330.474 242.156,331.337C243.453,330.179 244.102,328.565 244.102,326.495Z" style="fill-rule:nonzero;"/>
        <path d="M261.06,325.276C261.06,327.444 260.486,329.273 259.338,330.764C258.19,332.255 256.74,333 254.987,333C253.234,333 251.779,332.255 250.622,330.764C249.465,329.273 248.887,327.444 248.887,325.276L248.887,300.626C248.887,298.457 249.465,296.628 250.622,295.138C251.779,293.647 253.234,292.902 254.987,292.902C256.74,292.902 258.19,293.647 259.338,295.138C260.486,296.628 261.06,298.457 261.06,300.626L261.06,305.319L256.853,305.319L256.853,297.3C256.853,295.279 256.231,294.269 254.987,294.269C253.725,294.269 253.094,295.279 253.094,297.3L253.094,328.602C253.094,330.622 253.725,331.632 254.987,331.632C256.231,331.632 256.853,330.622 256.853,328.602L256.853,320.582L261.06,320.582L261.06,325.276ZM258.957,303.952L258.957,299.406C258.957,297.336 258.308,295.723 257.011,294.565C257.59,295.427 257.879,296.684 257.879,298.334L257.879,303.952L258.957,303.952ZM251.7,330.524C251.227,329.563 250.99,328.294 250.99,326.717L250.99,299.184C250.99,297.607 251.227,296.339 251.7,295.378C250.508,296.536 249.912,298.1 249.912,300.071L249.912,325.83C249.912,327.801 250.508,329.366 251.7,330.524ZM258.957,326.495L258.957,321.95L257.879,321.95L257.879,327.567C257.879,329.218 257.59,330.474 257.011,331.337C258.308,330.179 258.957,328.565 258.957,326.495Z" style="fill-rule:nonzero;"/>
        <path d="M271.446,332.63L270.105,332.63C268.352,332.63 266.902,331.879 265.753,330.376C264.605,328.873 264.031,327.05 264.031,324.906L264.031,294.639L262.664,294.639L262.664,293.271L264.031,293.271L264.031,282.295L268.212,279.634L268.212,293.271L271.235,293.271L271.235,294.639L268.212,294.639L268.212,328.232C268.212,330.253 268.843,331.263 270.105,331.263L271.446,331.263L271.446,332.63ZM266.818,330.117C266.345,329.181 266.108,327.924 266.108,326.348L266.108,282.517L265.03,283.219L265.03,325.424C265.03,327.419 265.626,328.984 266.818,330.117Z" style="fill-rule:nonzero;"/>
        <path d="M285.46,294.565C285.46,297.053 284.995,299.32 284.066,301.365L282.725,304.321C281.533,306.933 280.867,309.311 280.727,311.454L280.07,321.285L278.466,321.285L277.703,309.939C277.633,308.855 277.598,307.869 277.598,306.982C277.598,305.282 277.905,303.767 278.518,302.437L279.859,299.48C280.718,297.583 281.148,295.39 281.148,292.902L281.148,283.662C281.148,281.642 280.517,280.632 279.255,280.632C278.01,280.632 277.388,281.642 277.388,283.662L277.388,295.526L273.076,295.526L273.076,286.989C273.076,284.845 273.667,283.022 274.851,281.519C276.034,280.016 277.502,279.265 279.255,279.265C281.025,279.265 282.502,280.016 283.685,281.519C284.868,283.022 285.46,284.845 285.46,286.989L285.46,294.565ZM281.411,332.63L277.125,332.63L277.125,323.539L281.411,323.539L281.411,332.63ZM275.942,281.925C274.75,283.059 274.154,284.574 274.154,286.471L274.154,294.195L275.232,294.195L275.232,285.547C275.232,284.094 275.468,282.886 275.942,281.925ZM283.304,293.715L283.304,285.769C283.304,283.749 282.655,282.159 281.358,281.002C281.936,281.938 282.226,283.182 282.226,284.734L282.226,293.345C282.226,295.932 281.779,298.174 280.885,300.071L279.544,302.954C278.86,304.408 278.518,305.824 278.518,307.204C278.518,308.239 278.536,309.175 278.571,310.013L278.992,319.917L279.255,319.917L279.255,308.571C279.255,307.019 279.71,305.27 280.622,303.323L281.963,300.478C282.857,298.556 283.304,296.302 283.304,293.715ZM279.255,331.411L279.255,324.758L278.203,324.758L278.203,331.411L279.255,331.411Z" style="fill-rule:nonzero;"/>
    </g>
    <g transform="matrix(3.56566,0,0,2.53674,-358.325,-200.276)">
        <path d="M184.161,291.045C184.161,291.574 184.004,292.029 183.688,292.407C183.373,292.786 182.991,292.976 182.544,292.976C182.102,292.976 181.722,292.786 181.404,292.407C181.086,292.029 180.927,291.574 180.927,291.045L180.927,281.473C180.927,280.943 181.086,280.489 181.404,280.11C181.722,279.731 182.102,279.542 182.544,279.542C182.991,279.542 183.373,279.731 183.688,280.11C184.004,280.489 184.161,280.943 184.161,281.473L184.161,291.045ZM183.083,291.876L183.083,280.641C183.083,280.432 183.031,280.253 182.926,280.105C182.821,279.957 182.693,279.884 182.544,279.884C182.395,279.884 182.268,279.957 182.163,280.105C182.058,280.253 182.005,280.432 182.005,280.641L182.005,291.876C182.005,292.086 182.058,292.264 182.163,292.412C182.268,292.56 182.395,292.634 182.544,292.634C182.693,292.634 182.821,292.56 182.926,292.412C183.031,292.264 183.083,292.086 183.083,291.876Z" style="fill-rule:nonzero;"/>
        <path d="M187.875,286.055L186.824,286.055L186.824,284.05C186.824,283.57 186.716,283.33 186.501,283.33C186.361,283.33 186.221,283.438 186.081,283.653L186.081,292.541L186.423,292.541L186.423,292.883L184.694,292.883L184.694,292.541L185.036,292.541L185.036,283.385L184.694,283.385L184.694,283.043L186.081,283.043L186.081,283.311C186.278,283.071 186.526,282.951 186.824,282.951C187.525,282.951 187.875,283.53 187.875,284.688L187.875,286.055Z" style="fill-rule:nonzero;"/>
        <path d="M191.628,281.907L190.583,281.907L190.583,279.634L191.628,279.634L191.628,281.907ZM191.628,293.604C191.628,294.14 191.485,294.595 191.198,294.971C190.911,295.347 190.548,295.535 190.11,295.535L189.775,295.535L189.775,295.193L190.11,295.193C190.426,295.193 190.583,294.94 190.583,294.435L190.583,283.385L190.248,283.385L190.248,283.043L191.628,283.043L191.628,293.604Z" style="fill-rule:nonzero;"/>
        <path d="M195.855,292.883L194.468,292.883L194.468,292.615C194.271,292.855 194.012,292.976 193.692,292.976C192.926,292.976 192.542,292.397 192.542,291.239L192.542,283.385L192.207,283.385L192.207,283.043L193.594,283.043L193.594,291.876C193.594,292.357 193.725,292.597 193.988,292.597C194.155,292.597 194.315,292.489 194.468,292.273L194.468,283.385L194.133,283.385L194.133,283.043L195.52,283.043L195.52,292.541L195.855,292.541L195.855,292.883Z" style="fill-rule:nonzero;"/>
        <path d="M199.181,291.045C199.181,291.593 199.052,292.049 198.793,292.412C198.517,292.788 198.162,292.976 197.728,292.976C197.295,292.976 196.94,292.789 196.663,292.417C196.387,292.044 196.249,291.587 196.249,291.045L196.249,289.871L197.301,289.871L197.301,291.876C197.301,292.381 197.443,292.634 197.728,292.634C198,292.634 198.136,292.381 198.136,291.876L198.136,290.426C198.136,289.816 198.013,289.341 197.768,289.003L196.663,287.469C196.387,287.087 196.249,286.527 196.249,285.787L196.249,284.882C196.249,284.334 196.383,283.875 196.65,283.505C196.918,283.136 197.268,282.951 197.702,282.951C198.136,282.951 198.486,283.136 198.754,283.505C199.021,283.875 199.155,284.334 199.155,284.882L199.155,286.055L198.11,286.055L198.11,284.05C198.11,283.545 197.974,283.293 197.702,283.293C197.435,283.293 197.301,283.545 197.301,284.05L197.301,285.353C197.301,285.963 197.422,286.434 197.663,286.767L198.767,288.301C199.043,288.689 199.181,289.252 199.181,289.991L199.181,291.045Z" style="fill-rule:nonzero;"/>
        <path d="M201.764,292.883L201.429,292.883C200.991,292.883 200.628,292.695 200.341,292.32C200.054,291.944 199.911,291.488 199.911,290.952L199.911,283.385L199.569,283.385L199.569,283.043L199.911,283.043L199.911,280.299L200.956,279.634L200.956,283.043L201.712,283.043L201.712,283.385L200.956,283.385L200.956,291.784C200.956,292.289 201.113,292.541 201.429,292.541L201.764,292.541L201.764,292.883Z" style="fill-rule:nonzero;"/>
        <path d="M207.134,291.045C207.134,291.593 207.005,292.049 206.747,292.412C206.471,292.788 206.116,292.976 205.682,292.976C205.248,292.976 204.893,292.789 204.617,292.417C204.341,292.044 204.203,291.587 204.203,291.045L204.203,289.871L205.255,289.871L205.255,291.876C205.255,292.381 205.397,292.634 205.682,292.634C205.953,292.634 206.089,292.381 206.089,291.876L206.089,290.426C206.089,289.816 205.967,289.341 205.721,289.003L204.617,287.469C204.341,287.087 204.203,286.527 204.203,285.787L204.203,284.882C204.203,284.334 204.336,283.875 204.604,283.505C204.871,283.136 205.222,282.951 205.656,282.951C206.089,282.951 206.44,283.136 206.707,283.505C206.975,283.875 207.108,284.334 207.108,284.882L207.108,286.055L206.063,286.055L206.063,284.05C206.063,283.545 205.927,283.293 205.656,283.293C205.388,283.293 205.255,283.545 205.255,284.05L205.255,285.353C205.255,285.963 205.375,286.434 205.616,286.767L206.72,288.301C206.996,288.689 207.134,289.252 207.134,289.991L207.134,291.045Z" style="fill-rule:nonzero;"/>
        <path d="M210.973,292.883L209.586,292.883L209.586,292.615C209.389,292.855 209.137,292.976 208.83,292.976C208.085,292.976 207.713,292.397 207.713,291.239L207.713,289.058C207.713,287.839 208.23,287.229 209.264,287.229L209.586,287.229L209.586,284.05C209.586,283.545 209.455,283.293 209.192,283.293C208.933,283.293 208.804,283.545 208.804,284.05L208.804,286.055L207.752,286.055L207.752,284.882C207.752,284.297 207.883,283.829 208.143,283.478C208.404,283.127 208.754,282.951 209.192,282.951C209.634,282.951 209.985,283.127 210.244,283.478C210.502,283.829 210.631,284.297 210.631,284.882L210.631,292.541L210.973,292.541L210.973,292.883ZM209.586,292.273L209.586,287.571L209.277,287.571C208.935,287.571 208.765,287.82 208.765,288.319L208.765,291.876C208.765,292.357 208.885,292.597 209.126,292.597C209.279,292.597 209.433,292.489 209.586,292.273Z" style="fill-rule:nonzero;"/>
        <path d="M214.417,293.696C214.417,294.238 214.282,294.696 214.01,295.068C213.738,295.441 213.385,295.627 212.952,295.627C212.544,295.627 212.19,295.438 211.89,295.059C211.59,294.68 211.44,294.226 211.44,293.696L211.44,293.354L212.492,293.354L212.492,294.528C212.492,295.033 212.645,295.285 212.952,295.285C213.228,295.285 213.366,295.033 213.366,294.528L213.366,292.43C213.169,292.671 212.91,292.791 212.59,292.791C211.823,292.791 211.44,292.209 211.44,291.045L211.44,283.385L211.105,283.385L211.105,283.043L212.492,283.043L212.492,291.691C212.492,292.172 212.623,292.412 212.886,292.412C213.052,292.412 213.212,292.304 213.366,292.089L213.366,283.385L213.031,283.385L213.031,283.043L214.417,283.043L214.417,293.696Z" style="fill-rule:nonzero;"/>
        <path d="M220.609,292.883L219.222,292.883L219.222,284.05C219.222,283.57 219.093,283.33 218.835,283.33C218.664,283.33 218.502,283.438 218.348,283.653L218.348,292.541L218.69,292.541L218.69,292.883L216.961,292.883L216.961,292.541L217.303,292.541L217.303,279.976L216.961,279.976L216.961,279.634L218.348,279.634L218.348,283.311C218.545,283.071 218.806,282.951 219.13,282.951C219.893,282.951 220.274,283.53 220.274,284.688L220.274,292.541L220.609,292.541L220.609,292.883Z" style="fill-rule:nonzero;"/>
        <path d="M224.06,291.045C224.06,291.587 223.917,292.044 223.63,292.417C223.343,292.789 222.98,292.976 222.542,292.976C222.104,292.976 221.74,292.789 221.451,292.417C221.161,292.044 221.017,291.587 221.017,291.045L221.017,284.882C221.017,284.34 221.161,283.883 221.451,283.51C221.74,283.137 222.104,282.951 222.542,282.951C222.98,282.951 223.343,283.137 223.63,283.51C223.917,283.883 224.06,284.34 224.06,284.882L224.06,288.116L222.069,288.116L222.069,291.876C222.069,292.381 222.226,292.634 222.542,292.634C222.853,292.634 223.009,292.381 223.009,291.876L223.009,289.871L224.06,289.871L224.06,291.045ZM223.009,287.774L223.009,284.05C223.009,283.545 222.853,283.293 222.542,283.293C222.226,283.293 222.069,283.545 222.069,284.05L222.069,287.774L223.009,287.774Z" style="fill-rule:nonzero;"/>
        <path d="M226.269,292.883L224.547,292.883L224.547,292.541L224.882,292.541L224.882,279.976L224.547,279.976L224.547,279.634L225.927,279.634L225.927,292.541L226.269,292.541L226.269,292.883Z" style="fill-rule:nonzero;"/>
        <path d="M228.287,292.883L226.565,292.883L226.565,292.541L226.9,292.541L226.9,279.976L226.565,279.976L226.565,279.634L227.945,279.634L227.945,292.541L228.287,292.541L228.287,292.883Z" style="fill-rule:nonzero;"/>
        <path d="M231.81,291.045C231.81,291.587 231.666,292.044 231.379,292.417C231.092,292.789 230.73,292.976 230.292,292.976C229.853,292.976 229.49,292.789 229.2,292.417C228.911,292.044 228.767,291.587 228.767,291.045L228.767,284.882C228.767,284.34 228.911,283.883 229.2,283.51C229.49,283.137 229.853,282.951 230.292,282.951C230.73,282.951 231.092,283.137 231.379,283.51C231.666,283.883 231.81,284.34 231.81,284.882L231.81,291.045ZM230.758,291.876L230.758,284.05C230.758,283.545 230.603,283.293 230.292,283.293C229.976,283.293 229.818,283.545 229.818,284.05L229.818,291.876C229.818,292.381 229.976,292.634 230.292,292.634C230.603,292.634 230.758,292.381 230.758,291.876Z" style="fill-rule:nonzero;"/>
        <rect x="232.467" y="290.61" width="1.039" height="2.273" style="fill-rule:nonzero;"/>
    </g>
    <g transform="matrix(4.66658,0,0,2.38258,-832.87,-666.252)">
        <path d="M196.498,281.09L195.453,281.09L193.525,336.059L190.23,336.059L188.683,289.55L187.196,336.059L183.902,336.059L181.752,281.09L180.727,281.09L180.727,279.634L186.071,279.634L186.071,281.09L185.047,281.09L186.573,326.97L188.14,279.634L191.435,279.634L193.042,326.97L194.429,281.09L193.404,281.09L193.404,279.634L196.498,279.634L196.498,281.09ZM191.877,334.603L189.949,281.09L189.125,281.09L191.053,334.603L191.877,334.603ZM185.549,334.603L183.399,281.09L182.576,281.09L184.725,334.603L185.549,334.603Z" style="fill-rule:nonzero;"/>
        <path d="M207.567,336.059L203.328,336.059L203.328,334.918C202.726,335.941 201.955,336.453 201.018,336.453C198.741,336.453 197.603,333.987 197.603,329.055L197.603,319.769C197.603,314.575 199.183,311.978 202.344,311.978L203.328,311.978L203.328,298.442C203.328,296.291 202.926,295.216 202.123,295.216C201.333,295.216 200.938,296.291 200.938,298.442L200.938,306.981L197.723,306.981L197.723,301.984C197.723,299.492 198.122,297.498 198.919,296.003C199.715,294.508 200.784,293.76 202.123,293.76C203.476,293.76 204.547,294.508 205.337,296.003C206.127,297.498 206.523,299.492 206.523,301.984L206.523,334.603L207.567,334.603L207.567,336.059ZM199.873,296.16C198.962,297.367 198.507,299.111 198.507,301.394L198.507,305.525L199.33,305.525L199.33,300.449C199.33,298.613 199.511,297.183 199.873,296.16ZM204.935,334.603L204.935,300.449C204.935,298.193 204.453,296.475 203.489,295.295C203.904,296.213 204.112,297.551 204.112,299.308L204.112,334.603L204.935,334.603ZM203.328,333.462L203.328,313.434L202.384,313.434C201.339,313.434 200.817,314.496 200.817,316.621L200.817,331.77C200.817,333.816 201.185,334.839 201.922,334.839C202.391,334.839 202.86,334.38 203.328,333.462ZM199.993,334.997C199.471,333.974 199.21,332.557 199.21,330.747L199.21,318.392C199.21,316.634 199.391,315.244 199.752,314.221C198.842,315.139 198.386,316.857 198.386,319.376L198.386,329.842C198.386,332.728 198.922,334.446 199.993,334.997Z" style="fill-rule:nonzero;"/>
        <path d="M219.32,336.059L215.101,336.059L215.101,298.442C215.101,296.396 214.699,295.373 213.895,295.373C213.373,295.373 212.878,295.832 212.409,296.751L212.409,334.603L213.453,334.603L213.453,336.059L208.17,336.059L208.17,334.603L209.215,334.603L209.215,295.609L208.17,295.609L208.17,294.154L212.409,294.154L212.409,295.295C213.011,294.272 213.808,293.76 214.799,293.76C217.13,293.76 218.295,296.226 218.295,301.157L218.295,334.603L219.32,334.603L219.32,336.059ZM216.688,334.603L216.688,299.78C216.688,297.524 216.226,296.029 215.302,295.295C215.677,296.029 215.864,297.288 215.864,299.072L215.864,334.603L216.688,334.603ZM210.822,334.603L210.822,295.609L209.998,295.609L209.998,334.603L210.822,334.603Z" style="fill-rule:nonzero;"/>
        <path d="M226.572,336.059L225.547,336.059C224.208,336.059 223.1,335.259 222.223,333.659C221.345,332.059 220.907,330.118 220.907,327.835L220.907,295.609L219.862,295.609L219.862,294.154L220.907,294.154L220.907,282.467L224.101,279.634L224.101,294.154L226.411,294.154L226.411,295.609L224.101,295.609L224.101,331.377C224.101,333.528 224.583,334.603 225.547,334.603L226.572,334.603L226.572,336.059ZM223.036,333.384C222.675,332.387 222.494,331.049 222.494,329.37L222.494,282.703L221.67,283.451L221.67,328.386C221.67,330.511 222.126,332.177 223.036,333.384Z" style="fill-rule:nonzero;"/>
        <path d="M240.193,336.059L239.168,336.059C237.829,336.059 236.721,335.259 235.843,333.659C234.966,332.059 234.528,330.118 234.528,327.835L234.528,295.609L233.483,295.609L233.483,294.154L234.528,294.154L234.528,282.467L237.722,279.634L237.722,294.154L240.032,294.154L240.032,295.609L237.722,295.609L237.722,331.377C237.722,333.528 238.204,334.603 239.168,334.603L240.193,334.603L240.193,336.059ZM236.657,333.384C236.295,332.387 236.115,331.049 236.115,329.37L236.115,282.703L235.291,283.451L235.291,328.386C235.291,330.511 235.746,332.177 236.657,333.384Z" style="fill-rule:nonzero;"/>
        <path d="M250.941,328.229C250.941,330.537 250.502,332.485 249.625,334.072C248.748,335.659 247.639,336.453 246.3,336.453C244.961,336.453 243.849,335.659 242.965,334.072C242.081,332.485 241.639,330.537 241.639,328.229L241.639,301.984C241.639,299.675 242.081,297.728 242.965,296.141C243.849,294.554 244.961,293.76 246.3,293.76C247.639,293.76 248.748,294.554 249.625,296.141C250.502,297.728 250.941,299.675 250.941,301.984L250.941,328.229ZM249.334,329.527L249.334,300.685C249.334,298.482 248.838,296.764 247.847,295.531C248.289,296.449 248.51,297.787 248.51,299.544L248.51,330.669C248.51,332.426 248.289,333.764 247.847,334.682C248.838,333.449 249.334,331.731 249.334,329.527ZM247.726,331.77L247.726,298.442C247.726,296.291 247.251,295.216 246.3,295.216C245.336,295.216 244.854,296.291 244.854,298.442L244.854,331.77C244.854,333.921 245.336,334.997 246.3,334.997C247.251,334.997 247.726,333.921 247.726,331.77ZM243.789,333.816C243.427,332.793 243.246,331.442 243.246,329.764L243.246,300.449C243.246,298.77 243.427,297.419 243.789,296.396C242.878,297.629 242.423,299.295 242.423,301.394L242.423,328.819C242.423,330.918 242.878,332.583 243.789,333.816Z" style="fill-rule:nonzero;"/>
    </g>
</svg>
