<?xml version="1.0" encoding="UTF-8" standalone="no"?>
<!DOCTYPE svg PUBLIC "-//W3C//DTD SVG 1.1//EN" "http://www.w3.org/Graphics/SVG/1.1/DTD/svg11.dtd">
<svg width="100%" height="100%" viewBox="0 0 121 121" version="1.1" xmlns="http://www.w3.org/2000/svg" xmlns:xlink="http://www.w3.org/1999/xlink" xml:space="preserve" xmlns:serif="http://www.serif.com/" style="fill-rule:evenodd;clip-rule:evenodd;stroke-linecap:round;stroke-linejoin:round;stroke-miterlimit:1.5;">
    <g id="Vector-Logo" serif:id="Vector Logo" transform="matrix(2.03599,0,0,2.03469,-10786.2,-12301.9)">
        <g transform="matrix(1.01269,0,0,1.00252,-67.6117,-15.6063)">
            <rect x="5298.35" y="6046.76" width="58.076" height="58.535" style="fill:rgb(242,164,119);"/>
        </g>
        <g>
            <path d="M5356.9,6046.36L5297.99,6046.32L5356.9,6046.36Z" style="fill:none;stroke:black;stroke-width:0.49px;"/>
            <path d="M5356.93,6105.28L5356.9,6046.36" style="fill:none;stroke:black;stroke-width:0.49px;"/>
            <path d="M5322.1,6057.08C5322.01,6059.35 5321.86,6061.63 5321.83,6063.91C5321.81,6065.5 5321.91,6067.1 5321.89,6068.7C5321.86,6070.51 5321.67,6072.32 5321.69,6074.13C5321.75,6078.49 5322.25,6082.8 5322.06,6087.17C5322.05,6087.43 5322.25,6087.65 5322.51,6087.66C5322.77,6087.68 5322.99,6087.47 5323.01,6087.21C5323.2,6082.83 5322.69,6078.5 5322.64,6074.12C5322.61,6072.32 5322.81,6070.52 5322.84,6068.71C5322.86,6067.11 5322.75,6065.52 5322.77,6063.92C5322.8,6061.65 5322.95,6059.38 5323.05,6057.12C5323.06,6056.86 5322.85,6056.64 5322.59,6056.63C5322.33,6056.62 5322.11,6056.82 5322.1,6057.08Z"/>
            <path d="M5325.64,6053.66C5301.66,6063.83 5302.68,6089.71 5325.87,6098.23C5335.3,6101.1 5346.88,6097.31 5345.2,6091.02" style="fill:none;stroke:black;stroke-width:0.49px;"/>
            <path d="M5325.78,6053.63C5332.89,6050.62 5344.96,6054.24 5345.09,6061.73" style="fill:none;stroke:black;stroke-width:0.49px;"/>
            <path d="M5323.34,6054.82L5323.29,6096.84" style="fill:none;stroke:black;stroke-width:0.49px;"/>
            <path d="M5321.89,6093.62C5321.98,6093.55 5322.07,6093.43 5322.12,6093.23C5322.51,6091.68 5322.24,6089.71 5322.26,6088.12C5322.31,6084.23 5322.24,6080.38 5322.12,6076.49C5322,6072.61 5322.67,6068.68 5322.19,6064.8C5321.94,6062.77 5322.05,6060.94 5322.2,6058.89C5322.24,6058.39 5322.27,6057.9 5322.31,6057.4C5322.31,6057.36 5322.35,6056.93 5322.34,6056.83C5322.3,6056.41 5322.01,6056.28 5321.91,6056.23C5321.79,6056.18 5321.57,6056.13 5321.31,6056.25C5321.13,6056.34 5320.54,6056.87 5320.45,6056.94C5319.72,6057.56 5318.99,6058.18 5318.21,6058.75C5317.08,6059.58 5315.92,6060.34 5314.91,6061.33C5312.64,6063.59 5310.89,6066.68 5309.97,6069.73C5307.8,6076.92 5309.86,6084.72 5315.02,6090.17C5316.78,6092.03 5319.21,6093.33 5321.24,6094.89C5321.54,6095.12 5321.98,6095.06 5322.22,6094.76C5322.45,6094.45 5322.4,6094.01 5322.09,6093.78C5322.02,6093.72 5321.95,6093.67 5321.89,6093.62ZM5319.4,6067.28C5319.18,6068.78 5318.93,6070.28 5318.73,6071.78C5318.24,6075.58 5318,6079.39 5318.22,6083.22C5318.32,6084.92 5318.49,6086.61 5318.6,6088.31C5318.61,6088.5 5318.76,6089.46 5318.74,6089.91C5318.72,6090.3 5318.55,6090.53 5318.43,6090.62C5318.43,6090.62 5318.11,6090.83 5317.78,6090.74C5318.61,6091.38 5319.5,6091.96 5320.36,6092.55C5320.32,6092.46 5320.28,6092.38 5320.23,6092.29C5319.86,6091.54 5319.55,6090.76 5319.28,6089.97C5318.43,6087.52 5318.38,6085.05 5318.5,6082.49C5318.76,6077.41 5319.18,6072.35 5319.4,6067.28ZM5320.86,6065.5L5320.83,6066.51C5320.63,6071.87 5320.17,6077.2 5319.9,6082.56C5319.78,6084.94 5319.81,6087.23 5320.6,6089.51C5320.7,6089.82 5320.82,6090.13 5320.94,6090.43C5320.92,6089.63 5320.85,6088.82 5320.86,6088.1C5320.91,6084.23 5320.84,6080.4 5320.72,6076.53C5320.61,6072.87 5321.22,6069.16 5320.86,6065.5ZM5313.41,6083.32C5313.4,6083.34 5313.4,6083.35 5313.4,6083.35C5313.3,6083.64 5313.09,6083.75 5312.92,6083.8C5312.79,6083.83 5312.64,6083.84 5312.48,6083.77C5312.44,6083.76 5312.37,6083.73 5312.29,6083.66C5313.21,6085.68 5314.47,6087.56 5316.04,6089.2C5316.44,6089.64 5316.89,6090.03 5317.36,6090.41L5317.19,6090.21C5316.9,6089.84 5316.62,6089.47 5316.34,6089.1C5315.19,6087.51 5314.29,6085.8 5313.62,6083.96C5313.55,6083.74 5313.48,6083.53 5313.41,6083.32ZM5315.27,6068.77C5314.94,6069.22 5314.63,6069.69 5314.34,6070.17C5313.07,6074.5 5313.4,6079.18 5314.94,6083.48C5315.5,6085.04 5316.23,6086.48 5317.16,6087.84C5317.09,6086.78 5317,6085.74 5316.92,6084.69C5316.75,6084.87 5316.5,6084.89 5316.45,6084.9C5316.32,6084.91 5315.93,6084.91 5315.75,6084.47C5315.73,6084.43 5315.68,6084.17 5315.66,6084.06C5315.62,6083.9 5315.59,6083.74 5315.56,6083.58C5315.47,6083.15 5315.39,6082.72 5315.31,6082.28C5315.07,6080.93 5314.87,6079.57 5314.75,6078.2C5314.52,6075.52 5314.59,6072.8 5315.02,6070.14C5315.1,6069.68 5315.18,6069.22 5315.27,6068.77ZM5320.83,6058.45C5320.24,6058.94 5319.66,6059.43 5319.04,6059.88C5317.96,6060.67 5316.85,6061.38 5315.9,6062.32C5313.78,6064.42 5312.16,6067.3 5311.31,6070.14C5310.61,6072.45 5310.38,6074.84 5310.58,6077.18C5310.62,6075.77 5310.92,6074.36 5311.43,6072.96C5311.41,6071.69 5311.49,6070.38 5311.83,6069.21C5312.27,6067.72 5313.1,6066.46 5314.61,6065.74C5314.64,6065.72 5314.67,6065.71 5314.7,6065.7L5314.71,6065.68C5315.7,6063.92 5317,6062.43 5318.5,6061.1C5318.8,6060.83 5319.11,6060.57 5319.41,6060.3C5319.44,6060.27 5319.64,6059.99 5319.73,6059.9C5319.86,6059.77 5320,6059.7 5320.11,6059.67C5320.28,6059.62 5320.44,6059.64 5320.59,6059.7C5320.64,6059.72 5320.69,6059.74 5320.74,6059.78C5320.76,6059.45 5320.78,6059.12 5320.81,6058.79L5320.83,6058.45ZM5318.41,6063.11C5317.64,6063.9 5316.94,6064.75 5316.34,6065.68C5316.59,6065.62 5316.79,6065.72 5316.88,6065.78C5316.98,6065.84 5317.23,6066.03 5317.21,6066.43C5317.2,6066.6 5317,6067.35 5316.98,6067.43C5316.77,6068.41 5316.56,6069.38 5316.4,6070.37C5316.09,6072.25 5315.98,6074.16 5316.03,6076.06C5316.3,6074.01 5316.65,6071.96 5316.97,6069.92C5317.22,6068.34 5317.47,6066.77 5317.84,6065.21C5317.96,6064.69 5318.1,6064.16 5318.25,6063.64C5318.3,6063.46 5318.36,6063.28 5318.41,6063.11ZM5319.59,6062L5319.43,6062.14C5319.35,6062.22 5319.27,6062.29 5319.19,6062.36C5319.22,6062.36 5319.25,6062.36 5319.27,6062.37C5319.31,6062.38 5319.44,6062.4 5319.57,6062.48L5319.58,6062.09L5319.59,6062Z"/>
            <path d="M5322.51,6055.85C5322.47,6057.4 5322.61,6058.95 5322.62,6060.51C5322.65,6062.56 5322.53,6064.62 5322.53,6066.68C5322.53,6066.85 5322.67,6066.99 5322.84,6066.99C5323.01,6066.99 5323.15,6066.85 5323.15,6066.68C5323.15,6064.62 5323.27,6062.56 5323.24,6060.5C5323.23,6058.95 5323.09,6057.41 5323.13,6055.86C5323.13,6055.69 5322.99,6055.55 5322.82,6055.54C5322.65,6055.54 5322.51,6055.68 5322.51,6055.85Z"/>
            <path d="M5322.76,6096.05L5322.7,6095.33C5322.66,6094.79 5322.64,6094.24 5322.63,6093.69C5322.62,6093.52 5322.48,6093.39 5322.31,6093.39C5322.14,6093.39 5322,6093.54 5322.01,6093.71C5322.02,6094.27 5322.04,6094.82 5322.08,6095.38L5322.1,6095.63C5321.77,6095.45 5321.43,6095.27 5321.11,6095.07C5319.81,6094.27 5318.62,6093.36 5317.49,6092.34C5317.36,6092.22 5317.17,6092.23 5317.05,6092.36C5316.94,6092.49 5316.95,6092.68 5317.07,6092.8C5318.23,6093.84 5319.45,6094.78 5320.78,6095.6C5321.15,6095.82 5321.53,6096.03 5321.91,6096.23C5322.05,6096.31 5322.23,6096.45 5322.38,6096.49C5322.49,6096.51 5322.57,6096.49 5322.62,6096.45C5322.68,6096.42 5322.73,6096.37 5322.75,6096.3C5322.77,6096.27 5322.78,6096.21 5322.78,6096.15C5322.78,6096.13 5322.77,6096.07 5322.76,6096.05Z"/>
            <path d="M5356.86,6105.27L5298.02,6105.24L5297.99,6046.34" style="fill:none;stroke:black;stroke-width:0.49px;"/>
        </g>
        <g>
            <g transform="matrix(0.491161,0,0,0.491475,5297.77,6045.73)">
                <path d="M52.951,18.849C54.929,17.945 56.9,17.12 58.947,16.387C60.05,15.993 61.156,15.573 62.302,15.321C65.01,14.724 67.786,14.779 70.533,14.945C71.348,14.994 72.17,14.995 72.982,15.086C74.398,15.245 75.78,15.552 77.165,15.88C78.014,16.081 78.88,16.258 79.7,16.562C80.054,16.693 80.447,16.512 80.578,16.159C80.709,15.805 80.529,15.412 80.175,15.281C79.303,14.958 78.383,14.764 77.48,14.55C76.042,14.21 74.606,13.894 73.135,13.728C72.299,13.634 71.454,13.632 70.615,13.581C67.743,13.408 64.84,13.362 62.008,13.987C60.806,14.252 59.644,14.687 58.487,15.101C56.403,15.847 54.397,16.686 52.383,17.606C52.04,17.763 51.889,18.169 52.046,18.511C52.202,18.854 52.608,19.005 52.951,18.849Z"/>
            </g>
            <g transform="matrix(0.491161,0,0,0.491475,5297.77,6045.73)">
                <path d="M79.713,16.59C81.896,17.415 84.176,18.139 86.216,19.289C88.49,20.571 90.411,22.339 92.169,24.254C93.538,25.744 94.474,27.316 95.082,29.254C95.398,30.261 95.635,31.29 95.561,32.349C95.535,32.725 95.819,33.051 96.195,33.078C96.571,33.104 96.898,32.82 96.924,32.444C97.01,31.214 96.752,30.015 96.386,28.846C95.715,26.707 94.685,24.973 93.175,23.33C91.32,21.309 89.287,19.452 86.887,18.099C84.787,16.916 82.443,16.162 80.196,15.312C79.844,15.178 79.449,15.356 79.316,15.709C79.182,16.062 79.36,16.456 79.713,16.59Z"/>
            </g>
            <g transform="matrix(0.491161,0,0,0.491475,5297.77,6045.73)">
                <path d="M51.892,104.878C52.297,105.041 52.682,105.246 53.081,105.422C53.479,105.597 53.893,105.731 54.294,105.897C54.878,106.141 55.454,106.419 56.047,106.64C57.131,107.044 58.234,107.33 59.356,107.601C59.723,107.689 60.092,107.464 60.181,107.097C60.269,106.731 60.043,106.361 59.677,106.273C58.608,106.015 57.557,105.745 56.524,105.36C55.947,105.145 55.388,104.873 54.819,104.636C54.427,104.473 54.021,104.343 53.632,104.172C53.22,103.991 52.822,103.78 52.404,103.611C52.054,103.47 51.656,103.639 51.515,103.989C51.373,104.338 51.542,104.737 51.892,104.878Z"/>
            </g>
            <g transform="matrix(0.491161,0,0,0.491475,5297.77,6045.73)">
                <path d="M59.343,107.633C60.753,107.909 62.141,108.285 63.566,108.491C64.451,108.618 65.335,108.686 66.225,108.756C68.67,108.946 71.097,109.007 73.547,108.874C74.218,108.838 74.894,108.842 75.564,108.778C75.939,108.742 76.215,108.409 76.179,108.033C76.143,107.658 75.809,107.382 75.434,107.418C74.783,107.48 74.126,107.474 73.473,107.51C71.084,107.639 68.716,107.579 66.331,107.394C65.471,107.327 64.616,107.262 63.761,107.139C62.359,106.936 60.994,106.564 59.606,106.292C59.237,106.219 58.877,106.461 58.805,106.831C58.732,107.201 58.973,107.56 59.343,107.633Z"/>
            </g>
            <g transform="matrix(0.491161,0,0,0.491475,5297.77,6045.73)">
                <path d="M75.47,108.803C77.414,108.702 79.332,108.251 81.218,107.798C82.352,107.526 83.477,107.255 84.587,106.892C85.254,106.674 85.898,106.408 86.546,106.144C87.497,105.755 88.431,105.353 89.34,104.872C90.082,104.479 90.866,104.091 91.549,103.6C91.855,103.38 91.925,102.952 91.705,102.646C91.486,102.34 91.058,102.27 90.752,102.49C90.118,102.945 89.389,103.301 88.701,103.665C87.833,104.124 86.938,104.508 86.03,104.879C85.412,105.131 84.798,105.386 84.163,105.593C83.088,105.945 81.997,106.206 80.898,106.47C79.094,106.904 77.26,107.342 75.399,107.439C75.022,107.459 74.733,107.78 74.752,108.157C74.772,108.533 75.093,108.823 75.47,108.803Z"/>
            </g>
            <g transform="matrix(0.491161,0,0,0.491475,5297.77,6045.73)">
                <path d="M91.541,103.622C92.234,103.146 92.915,102.644 93.558,102.104C93.91,101.809 94.279,101.515 94.581,101.168C95.044,100.638 95.364,99.999 95.7,99.387C96.113,98.636 96.529,97.895 96.852,97.1C96.994,96.751 96.826,96.352 96.477,96.21C96.128,96.068 95.729,96.236 95.587,96.586C95.283,97.332 94.89,98.025 94.503,98.73C94.213,99.256 93.95,99.813 93.552,100.27C93.295,100.564 92.977,100.807 92.68,101.058C92.07,101.57 91.424,102.045 90.767,102.496C90.457,102.709 90.378,103.135 90.591,103.446C90.805,103.756 91.23,103.835 91.541,103.622Z"/>
            </g>
            <g transform="matrix(0.491161,0,0,0.491475,5297.77,6045.73)">
                <path d="M96.866,97.03C97.27,95.419 97.146,93.82 96.924,92.198C96.872,91.824 96.527,91.563 96.154,91.614C95.78,91.665 95.519,92.01 95.57,92.384C95.769,93.832 95.901,95.259 95.541,96.698C95.449,97.064 95.671,97.435 96.037,97.527C96.403,97.619 96.774,97.396 96.866,97.03Z"/>
            </g>
            <g transform="matrix(0.491161,0,0,0.491475,5297.77,6045.73)">
                <path d="M30.58,41.174C29.834,49.344 28.474,57.697 29.041,65.916C29.518,72.827 31.488,79.641 33.997,86.066C35.603,90.179 40.247,92.214 44.359,90.608C48.472,89.001 50.507,84.358 48.901,80.245C46.976,75.317 45.369,70.115 45.003,64.815C44.495,57.442 45.844,49.958 46.514,42.63C46.915,38.232 43.671,34.337 39.274,33.935C34.877,33.534 30.982,36.777 30.58,41.174Z"/>
            </g>
            <g transform="matrix(0.491161,0,0,0.491475,5297.77,6045.73)">
                <path d="M47.175,20.959C43.954,23.37 40.35,25.256 37.354,27.975C36.114,29.1 35.047,30.406 33.958,31.671C32.308,33.588 30.646,35.558 29.319,37.718C28.155,39.614 27.214,41.653 26.15,43.606C25.473,44.849 25.932,46.408 27.175,47.085C28.418,47.763 29.977,47.303 30.654,46.06C31.676,44.185 32.573,42.222 33.69,40.402C34.874,38.474 36.373,36.728 37.845,35.018C38.798,33.911 39.717,32.757 40.801,31.773C43.677,29.163 47.157,27.379 50.249,25.064C51.382,24.216 51.613,22.607 50.765,21.474C49.917,20.341 48.308,20.11 47.175,20.959Z"/>
            </g>
            <g transform="matrix(0.491161,0,0,0.491475,5297.77,6045.73)">
                <path d="M25.45,44.418C25.333,44.541 25.22,44.684 25.111,44.848C25.075,44.903 24.871,45.319 24.799,45.483C24.729,45.645 24.658,45.806 24.587,45.968C24.395,46.403 24.204,46.838 23.999,47.267C23.264,48.806 22.54,50.282 22.074,51.934C20.739,56.676 20.711,61.57 21.121,66.438C21.239,67.849 22.481,68.898 23.891,68.779C25.302,68.66 26.35,67.419 26.232,66.009C25.874,61.753 25.844,57.47 27.012,53.324C27.1,53.01 27.201,52.704 27.312,52.404C27.474,52.313 27.635,52.198 27.792,52.054C27.917,51.939 28.578,50.683 28.578,50.683C28.578,50.683 28.532,50.843 28.514,50.895C28.549,50.795 28.584,50.694 28.619,50.594C28.713,50.327 28.803,50.059 28.891,49.791C29.13,49.071 29.366,48.35 29.647,47.646C30.508,45.493 31.659,43.475 32.736,41.426C33.395,40.173 32.912,38.621 31.659,37.963C30.406,37.304 28.854,37.787 28.196,39.04C27.26,40.821 26.28,42.585 25.45,44.418Z"/>
            </g>
            <g transform="matrix(0.491161,0,0,0.491475,5297.77,6045.73)">
                <path d="M21.424,67.059C21.64,69.384 21.815,71.818 22.411,74.083C22.956,76.152 23.843,78.069 24.802,79.974C26.266,82.883 27.874,85.547 30.146,87.905C31.128,88.925 32.752,88.955 33.772,87.973C34.791,86.991 34.822,85.367 33.84,84.347C31.933,82.367 30.613,80.11 29.383,77.667C28.586,76.084 27.824,74.498 27.372,72.777C26.846,70.782 26.722,68.633 26.531,66.584C26.4,65.175 25.15,64.137 23.74,64.268C22.331,64.399 21.293,65.649 21.424,67.059Z"/>
            </g>
            <g transform="matrix(0.491161,0,0,0.491475,5297.77,6045.73)">
                <path d="M32.883,85.261C32.432,85.325 31.992,85.51 31.615,85.821C30.523,86.721 30.368,88.339 31.268,89.431C32.25,90.622 33.375,91.636 34.476,92.711C37.27,95.439 40.262,97.844 43.558,99.946C44.654,100.646 45.77,101.311 46.907,101.942C47.486,102.263 48.493,102.882 49.147,102.971C50.728,103.185 52.007,99.729 52.007,99.729C52.007,99.729 52.06,100.108 52.058,100.246C52.06,100.066 52.06,99.886 52.058,99.706C52.053,99.204 52.041,98.703 52.019,98.202C51.956,96.763 51.827,95.329 51.755,93.891C51.551,89.782 51.819,85.695 51.906,81.589C51.967,78.713 52.024,75.813 51.681,72.951C51.567,72.001 51.427,71.051 51.266,70.107C51.213,69.793 51.162,69.479 51.103,69.166C51.084,69.069 51.066,68.973 51.048,68.876C51.07,68.993 51.09,69.33 51.09,69.33C51.09,69.33 50.352,67.343 50.003,67.094C49.617,66.819 49.181,66.656 48.687,66.621L48.657,66.62C48.909,63.651 48.962,60.643 48.8,57.678C48.723,56.265 47.513,55.18 46.1,55.257C44.692,55.334 43.61,56.535 43.678,57.941C43.314,57.111 42.858,56.314 42.257,55.56C39.21,51.741 34.527,50.72 30.062,52.589C27.873,53.504 25.917,55.102 25.161,57.448C24.683,58.934 24.653,60.497 24.882,62.072C25.146,63.897 25.788,65.741 26.139,67.422C26.698,70.1 26.858,72.85 27.593,75.489C28.178,77.591 29.198,79.54 30.312,81.401C31.109,82.734 31.953,84.028 32.883,85.261ZM43.542,72.847C43.154,72.27 42.76,71.545 42.76,71.545C42.76,71.545 42.846,71.917 42.896,72.046L42.384,70.734C41.983,69.703 41.588,68.672 41.234,67.624C40.762,66.229 40.342,64.811 39.994,63.379C39.595,61.73 39.331,60.118 38.247,58.759C36.701,56.821 34.308,56.372 32.041,57.32C31.21,57.668 30.331,58.128 30.044,59.02C29.729,59.997 29.876,61.039 30.089,62.075C30.391,63.55 30.877,65.016 31.16,66.375C31.696,68.942 31.83,71.583 32.534,74.113C32.996,75.773 33.833,77.297 34.713,78.767C35.795,80.574 36.963,82.306 38.376,83.874C39.628,85.263 40.976,86.532 42.37,87.758C41.73,82.82 41.896,77.608 43.521,72.906L43.542,72.847Z"/>
            </g>
            <g transform="matrix(0.491161,0,0,0.491475,5297.77,6045.73)">
                <path d="M47.469,37.91C47.106,38.155 46.774,38.442 46.468,38.754C45.376,39.867 44.677,41.272 44.251,42.756C43.383,45.778 43.549,49.182 43.699,52.285C43.764,53.61 43.926,54.972 43.71,56.29C43.435,57.97 41.866,59.068 40.239,59.395C38.23,59.799 36.3,59.584 34.341,59.012C32.982,58.615 31.557,59.395 31.16,60.754C30.763,62.113 31.544,63.538 32.902,63.935C35.674,64.745 38.408,64.995 41.25,64.424C43.546,63.962 45.675,62.696 47.097,60.884C47.096,61.349 47.092,61.814 47.086,62.28C47.045,65.479 46.831,68.669 46.734,71.866C46.691,73.281 47.805,74.464 49.22,74.507C50.634,74.55 51.818,73.437 51.861,72.022C51.959,68.795 52.173,65.576 52.215,62.346C52.277,57.522 52.079,52.703 52.093,47.88C52.099,45.754 52.382,43.574 52.109,41.457C52.029,40.828 51.893,40.211 51.724,39.6C51.734,39.634 51.76,39.748 51.76,39.748C51.76,39.748 51.407,38.642 51.225,38.392C51.032,38.128 50.816,37.933 50.608,37.787C50.196,37.5 49.478,37.136 48.455,37.415C48.279,37.463 47.499,37.893 47.469,37.91ZM47.469,37.91L47.521,37.874C47.51,37.881 47.468,37.91 47.468,37.91L47.469,37.91Z"/>
            </g>
            <g transform="matrix(0.491161,0,0,0.491475,5297.77,6045.73)">
                <path d="M25.861,50.962C25.28,53.66 24.697,56.421 24.392,59.172C24.236,60.579 25.252,61.847 26.659,62.003C28.066,62.159 29.334,61.144 29.49,59.737C29.776,57.158 30.331,54.571 30.875,52.043C31.173,50.659 30.292,49.293 28.908,48.995C27.525,48.697 26.159,49.579 25.861,50.962Z"/>
            </g>
            <g transform="matrix(0.491161,0,0,0.491475,5297.77,6045.73)">
                <path d="M45.987,32.22C47.963,30.028 49.527,27.653 50.753,24.825C51.316,23.526 50.719,22.015 49.42,21.452C48.122,20.889 46.61,21.486 46.047,22.785C44.741,25.797 42.953,28.173 40.579,30.417C39.632,31.312 38.687,32.224 37.84,33.217C37.52,33.591 37.219,33.977 36.937,34.381C36.839,34.522 36.745,34.666 36.654,34.812C36.715,34.715 36.918,34.465 36.918,34.465C36.918,34.465 36.102,36.437 36.192,36.866C36.288,37.321 36.493,37.729 36.822,38.085C37.101,38.387 37.502,38.703 38.144,38.851C38.512,38.936 40.252,38.479 40.252,38.479C40.252,38.479 40.185,38.513 40.162,38.523C40.544,38.348 40.919,38.158 41.286,37.954C42.766,37.136 44.125,36.138 45.349,34.975C46.117,34.246 46.334,33.153 45.987,32.22Z"/>
            </g>
            <g transform="matrix(0.491161,0,0,0.491475,5297.77,6045.73)">
                <path d="M50.692,19.017C49.791,19.833 48.852,20.598 47.902,21.355C47.547,21.638 47.489,22.156 47.772,22.51C48.055,22.865 48.573,22.923 48.928,22.64C49.904,21.862 50.869,21.075 51.795,20.236C52.132,19.932 52.157,19.411 51.853,19.075C51.548,18.738 51.028,18.713 50.692,19.017Z"/>
            </g>
            <g transform="matrix(0.491161,0,0,0.491475,5297.77,6045.73)">
                <path d="M51.747,102.746C51.913,102.523 51.962,102.22 51.849,101.944C51.659,101.481 51.424,101.023 51.082,100.652C50.959,100.519 50.826,100.395 50.682,100.285C50.63,100.245 50.576,100.207 50.522,100.171C50.543,100.185 50.602,100.232 50.602,100.232C50.602,100.232 50.103,99.995 50.013,99.995C49.695,99.997 49.462,100.138 49.306,100.403C49.245,100.506 49.173,100.664 49.197,100.903C49.236,101.309 49.456,101.769 49.619,102.137C49.915,102.801 50.252,103.448 50.599,104.087C50.815,104.486 51.314,104.634 51.713,104.418C52.112,104.201 52.26,103.702 52.044,103.303C51.944,103.118 51.845,102.933 51.747,102.746Z"/>
            </g>
        </g>
    </g>
</svg>
