<?xml version="1.0" encoding="utf-8"?>
<svg id="Layer_1" data-name="Layer 1" viewBox="0 0 500 500" xmlns="http://www.w3.org/2000/svg">
  <defs>
    <style>.cls-1,.cls-3{fill:none;}.cls-2{clip-path:url(#clip-path);}.cls-3{stroke:#221f1f;stroke-miterlimit:10;}</style>
    <clipPath id="clip-path">
      <rect class="cls-1" width="500" height="500"/>
    </clipPath>
  </defs>
  <g style="" transform="matrix(1.922143, 0, 0, 1.922143, -226.628311, -192.828552)">
    <g class="cls-2">
      <g class="cls-2">
        <path d="M288.79,147.55a49.21,49.21,0,0,0-10.12-6.07,48.2,48.2,0,0,0-38.05-.29,47.81,47.81,0,0,0-15.33,10.41,49.35,49.35,0,0,0-10.35,15.48,48.91,48.91,0,0,0,0,37.61,49.35,49.35,0,0,0,10.35,15.48,47.65,47.65,0,0,0,15.33,10.41,46.88,46.88,0,0,0,18.73,3.77,47.36,47.36,0,0,0,20.4-4.49,48.86,48.86,0,0,0,9.07-5.51v-3.83a47.94,47.94,0,0,1-9.78,6.59,42.75,42.75,0,0,1-19.68,4.34,34.36,34.36,0,0,1-16.05-3.83,41,41,0,0,1-12.81-10.42,50,50,0,0,1-8.39-14.68,47.83,47.83,0,0,1,0-33.13,50.8,50.8,0,0,1,8.32-14.68,41,41,0,0,1,12.73-10.49,34.13,34.13,0,0,1,16.2-3.9,42.79,42.79,0,0,1,18.52,3.9,48.7,48.7,0,0,1,10.92,7.08"/>
        <line x1="288.79" y1="147.55" x2="288.79" y2="151.3"/>
        <polygon points="288.79 151.29 288.79 147.55 285.77 147.55 285.77 155.45 288.79 155.45 288.79 151.29"/>
        <rect x="285.8" y="216.45" width="3.02" height="7.9"/>
        <path d="M242.27,144.71v82.35s-16.79-3-23.91-23.09,6.75-48.52,6.75-48.52,12.34-13.07,14.75-11.91Z"/>
        <path d="M187.08,248.8H312.92V123H187.08Zm123-2.87H190V125.83h120.1Z"/>
        <polygon points="203.4 313.36 218.85 313.36 218.85 314.38 197.63 314.38 197.63 280.82 203.4 280.82 203.4 313.36"/>
        <path d="M245.57,280.51a16.32,16.32,0,0,1,6.61,1.36,17.31,17.31,0,0,1,9.05,9.13,17,17,0,0,1,0,13.2,17.31,17.31,0,0,1-9.05,9.13,16.32,16.32,0,0,1-6.61,1.35,16.62,16.62,0,0,1-6.6-1.32,17.1,17.1,0,0,1-5.41-3.67,17.52,17.52,0,0,1-3.64-5.46,17.19,17.19,0,0,1,0-13.26,17.52,17.52,0,0,1,3.64-5.46,17.1,17.1,0,0,1,5.41-3.67,16.63,16.63,0,0,1,6.6-1.33m5.72,31.27a14.3,14.3,0,0,0,2.6-2.71,12.87,12.87,0,0,0,1.91-4.3,35.11,35.11,0,0,0,0-14.34,13.24,13.24,0,0,0-1.91-4.33,13,13,0,0,0-2.6-2.68,8.74,8.74,0,0,0-2.73-1.4,10.4,10.4,0,0,0-3-.43,10.89,10.89,0,0,0-2.9.4,8.23,8.23,0,0,0-2.81,1.43,13.4,13.4,0,0,0-2.63,2.68,12.83,12.83,0,0,0-1.91,4.33,36.56,36.56,0,0,0,0,14.34,12.48,12.48,0,0,0,1.91,4.3,14.75,14.75,0,0,0,2.63,2.71,9.7,9.7,0,0,0,2.81,1.43,9.89,9.89,0,0,0,2.9.45,10.08,10.08,0,0,0,3-.45,9.28,9.28,0,0,0,2.73-1.43"/>
        <path d="M295.86,314.38l-4.28-9.74H277.4l-4.49,9.74h-1.12l15.55-33.87,14.79,33.87Zm-18-10.76h13.31l-6.48-14.84Z"/>
        <polygon points="328.3 297.19 340.94 314.38 333.75 314.38 324.83 302.19 316.26 314.38 315.24 314.38 315.24 280.82 321 280.82 321 305.86 338.6 280.82 339.82 280.82 328.3 297.19"/>
        <path d="M183.05,307.9l.66.77a16.74,16.74,0,0,1-5.71,4.41,17.08,17.08,0,0,1-13.8.28,17.06,17.06,0,0,1-5.4-3.67,17.55,17.55,0,0,1-3.65-5.46,17.31,17.31,0,0,1,0-13.26,17.55,17.55,0,0,1,3.65-5.46,17.06,17.06,0,0,1,5.4-3.67,17.12,17.12,0,0,1,13.42.08,16.35,16.35,0,0,1,5.53,3.95l-.66.76a16.8,16.8,0,0,0-5.15-3.74,15.35,15.35,0,0,0-6.53-1.36,10.33,10.33,0,0,0-2.91.44,8.42,8.42,0,0,0-2.8,1.45,13.14,13.14,0,0,0-2.63,2.68,12.45,12.45,0,0,0-1.91,4.33,36.06,36.06,0,0,0,0,14.34,12.11,12.11,0,0,0,1.91,4.3,14.43,14.43,0,0,0,2.63,2.71,9.64,9.64,0,0,0,2.8,1.43,10,10,0,0,0,2.91.45,14.81,14.81,0,0,0,6.93-1.55,17.75,17.75,0,0,0,5.31-4.21"/>
        <rect x="182.37" y="285.87" width="0.78" height="1.79"/>
        <rect x="182.94" y="306.87" width="0.77" height="1.79"/>
        <path d="M165.1,337.58l.23.26a5.76,5.76,0,0,1-1.91,1.47,5.64,5.64,0,0,1-6.41-1.13,5.65,5.65,0,0,1-1.22-1.82,5.57,5.57,0,0,1-.44-2.22,5.49,5.49,0,0,1,.44-2.21,5.65,5.65,0,0,1,1.22-1.82,5.34,5.34,0,0,1,1.8-1.23,5.45,5.45,0,0,1,2.21-.44,5.62,5.62,0,0,1,2.27.46,5.69,5.69,0,0,1,1.85,1.32l-.22.26a5.67,5.67,0,0,0-1.72-1.25,5.15,5.15,0,0,0-2.18-.45,3.67,3.67,0,0,0-1,.14,2.92,2.92,0,0,0-.94.49,3.92,3.92,0,0,0-1.52,2.34,12.53,12.53,0,0,0,0,4.78,4.2,4.2,0,0,0,.64,1.44,4.77,4.77,0,0,0,.88.91,3.4,3.4,0,0,0,1.91.63,5,5,0,0,0,2.31-.52,6,6,0,0,0,1.77-1.41"/>
        <rect x="164.88" y="330.23" width="0.26" height="0.6"/>
        <rect x="165.07" y="337.24" width="0.26" height="0.6"/>
        <path d="M182.18,328.46a5.41,5.41,0,0,1,2.2.45,5.65,5.65,0,0,1,1.8,1.23A5.78,5.78,0,0,1,187.4,332a5.72,5.72,0,0,1,0,4.4,5.78,5.78,0,0,1-1.22,1.81,5.52,5.52,0,0,1-1.8,1.24,5.63,5.63,0,0,1-6.2-1.22,5.82,5.82,0,0,1-1.22-1.82,5.77,5.77,0,0,1,0-4.42,5.82,5.82,0,0,1,1.22-1.82,5.46,5.46,0,0,1,1.8-1.22,5.41,5.41,0,0,1,2.2-.44m1.9,10.42a4.66,4.66,0,0,0,.87-.9,4.4,4.4,0,0,0,.64-1.44,11.55,11.55,0,0,0,0-4.78,4.61,4.61,0,0,0-.64-1.44,3.88,3.88,0,0,0-.87-.89,2.55,2.55,0,0,0-.91-.47,3.3,3.3,0,0,0-1-.15,3.67,3.67,0,0,0-1,.14,2.58,2.58,0,0,0-.93.48,4.13,4.13,0,0,0-.88.89,4.19,4.19,0,0,0-.64,1.44,12.53,12.53,0,0,0,0,4.78,4,4,0,0,0,.64,1.44,5,5,0,0,0,.88.9,3.14,3.14,0,0,0,.93.47,3.08,3.08,0,0,0,2,0,2.92,2.92,0,0,0,.91-.47"/>
        <polygon points="201.76 339.4 206.91 339.4 206.91 339.75 199.84 339.75 199.84 328.56 201.76 328.56 201.76 339.4"/>
        <polygon points="221.01 339.4 226.16 339.4 226.16 339.75 219.09 339.75 219.09 328.56 221.01 328.56 221.01 339.4"/>
        <polygon points="245.4 328.9 240.25 328.9 240.25 333.98 244.13 333.98 244.13 334.32 240.25 334.32 240.25 339.4 245.4 339.4 245.4 339.74 238.33 339.74 238.33 328.56 245.4 328.56 245.4 328.9"/>
        <path d="M266.35,337.59l.22.25a5.66,5.66,0,0,1-1.91,1.47,5.58,5.58,0,0,1-4.59.09,5.61,5.61,0,0,1-1.81-1.22,5.79,5.79,0,0,1-1.21-1.82,5.77,5.77,0,0,1,0-4.42,5.79,5.79,0,0,1,1.21-1.82,5.61,5.61,0,0,1,1.81-1.22,5.41,5.41,0,0,1,2.2-.44,5.46,5.46,0,0,1,4.11,1.78l-.22.26a5.39,5.39,0,0,0-1.72-1.25,5.07,5.07,0,0,0-2.17-.45,3.67,3.67,0,0,0-1,.14,2.92,2.92,0,0,0-.94.49,4.1,4.1,0,0,0-.87.89,4.19,4.19,0,0,0-.64,1.44,12,12,0,0,0,0,4.78,4,4,0,0,0,.64,1.44,5,5,0,0,0,.87.9,3.31,3.31,0,0,0,.94.47,3,3,0,0,0,1,.16,5,5,0,0,0,2.31-.52,6,6,0,0,0,1.77-1.4"/>
        <polygon points="286.37 328.56 286.37 328.9 283.02 328.9 283.02 339.75 281.1 339.75 281.1 328.9 277.75 328.9 277.75 328.56 286.37 328.56"/>
        <rect x="298.32" y="328.56" width="1.92" height="11.19"/>
        <polygon points="317.14 339.85 312.21 328.56 314.32 328.56 318.05 337.09 321.95 328.56 322.33 328.56 317.14 339.85"/>
        <polygon points="341.15 328.9 336 328.9 336 333.98 339.87 333.98 339.87 334.32 336 334.32 336 339.4 341.15 339.4 341.15 339.74 334.08 339.74 334.08 328.56 341.15 328.56 341.15 328.9"/>
        <polygon points="233.12 261.29 233.12 261.63 229.77 261.63 229.77 272.48 227.85 272.48 227.85 261.63 224.5 261.63 224.5 261.29 233.12 261.29"/>
        <polygon points="251.6 261.29 253.52 261.29 253.52 272.48 251.6 272.48 251.6 267.07 246.86 267.07 246.86 272.48 244.94 272.48 244.94 261.29 246.86 261.29 246.86 266.73 251.6 266.73 251.6 261.29"/>
        <polygon points="273.14 261.63 267.99 261.63 267.99 266.71 271.87 266.71 271.87 267.05 267.99 267.05 267.99 272.13 273.14 272.13 273.14 272.47 266.07 272.47 266.07 261.29 273.14 261.29 273.14 261.63"/>
        <line class="cls-3" x1="279.27" y1="272.47" x2="343.03" y2="272.47"/>
        <line class="cls-3" x1="153.82" y1="272.47" x2="217.59" y2="272.47"/>
        <line class="cls-3" x1="151.53" y1="322.29" x2="348.47" y2="322.29"/>
        <rect x="182.38" y="285.87" width="0.77" height="1.79"/>
        <rect x="182.94" y="306.87" width="0.77" height="1.79"/>
      </g>
    </g>
  </g>
</svg>